<mxfile host="app.diagrams.net" modified="20250402150227" agent="Mozilla/5.0" etag="your-etag" version="21.7.5" type="device">
  <diagram id="azure-webserver-infra" name="Azure Webserver Infrastructure">
    <mxGraphModel dx="1422" dy="762" grid="1" gridSize="10" guides="1" tooltips="1" connect="1" arrows="1" fold="1" page="1" pageScale="1" pageWidth="850" pageHeight="1100" math="0" shadow="0">
      <root>
        <mxCell id="0" />
        <mxCell id="1" parent="0" />
        <!-- Azure Cloud -->
        <mxCell id="2" value="Azure Cloud" style="rounded=1;whiteSpace=wrap;html=1;fillColor=#e6f2ff;strokeColor=#0066CC;dashed=0;verticalAlign=top;fontStyle=1;fontSize=14;" vertex="1" parent="1">
          <mxGeometry x="120" y="80" width="600" height="480" as="geometry" />
        </mxCell>
        <!-- Resource Group -->
        <mxCell id="3" value="Resource Group" style="rounded=1;whiteSpace=wrap;html=1;fillColor=#dae8fc;strokeColor=#6c8ebf;dashed=1;verticalAlign=top;fontStyle=1" vertex="1" parent="1">
          <mxGeometry x="160" y="130" width="520" height="400" as="geometry" />
        </mxCell>
        <!-- Virtual Network -->
        <mxCell id="4" value="Virtual Network" style="rounded=1;whiteSpace=wrap;html=1;fillColor=#f5f5f5;strokeColor=#666666;dashed=1;verticalAlign=top;fontStyle=1" vertex="1" parent="1">
          <mxGeometry x="200" y="180" width="440" height="320" as="geometry" />
        </mxCell>
        <!-- Subnet -->
        <mxCell id="5" value="Subnet" style="rounded=1;whiteSpace=wrap;html=1;fillColor=#f8cecc;strokeColor=#b85450;dashed=1;verticalAlign=top;fontStyle=1" vertex="1" parent="1">
          <mxGeometry x="240" y="230" width="360" height="240" as="geometry" />
        </mxCell>
        <!-- Network Security Group -->
        <mxCell id="6" value="Network Security Group" style="rounded=1;whiteSpace=wrap;html=1;fillColor=#fff2cc;strokeColor=#d6b656;dashed=1;verticalAlign=top;fontStyle=1" vertex="1" parent="1">
          <mxGeometry x="260" y="270" width="320" height="180" as="geometry" />
        </mxCell>
        <!-- VM -->
        <mxCell id="7" value="Virtual Machine&#xa;(Webserver)" style="aspect=fixed;html=1;points=[];align=center;image;fontSize=12;image=img/lib/azure2/compute/Virtual_Machine.svg;fontStyle=1" vertex="1" parent="1">
          <mxGeometry x="380" y="320" width="69" height="64" as="geometry" />
        </mxCell>
        <!-- Public IP -->
        <mxCell id="8" value="Public IP" style="aspect=fixed;html=1;points=[];align=center;image;fontSize=12;image=img/lib/azure2/networking/Public_IP_Addresses.svg;fontStyle=1" vertex="1" parent="1">
          <mxGeometry x="520" y="320" width="65" height="52" as="geometry" />
        </mxCell>
        <!-- Network Interface -->
        <mxCell id="9" value="Network Interface" style="aspect=fixed;html=1;points=[];align=center;image;fontSize=12;image=img/lib/azure2/networking/Network_Interfaces.svg;fontStyle=1" vertex="1" parent="1">
          <mxGeometry x="280" y="320" width="68" height="60" as="geometry" />
        </mxCell>
        <!-- Connections -->
        <mxCell id="10" value="" style="endArrow=classic;html=1;rounded=0;exitX=1;exitY=0.5;exitDx=0;exitDy=0;entryX=0;entryY=0.5;entryDx=0;entryDy=0;" edge="1" parent="1" source="9" target="7">
          <mxGeometry width="50" height="50" relative="1" as="geometry">
            <mxPoint x="400" y="410" as="sourcePoint" />
            <mxPoint x="450" y="360" as="targetPoint" />
          </mxGeometry>
        </mxCell>
        <mxCell id="11" value="" style="endArrow=classic;html=1;rounded=0;exitX=1;exitY=0.5;exitDx=0;exitDy=0;entryX=0;entryY=0.5;entryDx=0;entryDy=0;" edge="1" parent="1" source="7" target="8">
          <mxGeometry width="50" height="50" relative="1" as="geometry">
            <mxPoint x="400" y="410" as="sourcePoint" />
            <mxPoint x="450" y="360" as="targetPoint" />
          </mxGeometry>
        </mxCell>
        <!-- Internet -->
        <mxCell id="12" value="Internet" style="ellipse;shape=cloud;whiteSpace=wrap;html=1;fillColor=#f5f5f5;strokeColor=#666666;fontStyle=1" vertex="1" parent="1">
          <mxGeometry x="650" y="100" width="120" height="80" as="geometry" />
        </mxCell>
        <!-- Internet Connection -->
        <mxCell id="13" value="" style="endArrow=classic;startArrow=classic;html=1;rounded=0;entryX=0.55;entryY=0.95;entryDx=0;entryDy=0;entryPerimeter=0;exitX=1;exitY=0.25;exitDx=0;exitDy=0;" edge="1" parent="1" source="8" target="12">
          <mxGeometry width="50" height="50" relative="1" as="geometry">
            <mxPoint x="400" y="410" as="sourcePoint" />
            <mxPoint x="450" y="360" as="targetPoint" />
            <Array as="points">
              <mxPoint x="716" y="333" />
            </Array>
          </mxGeometry>
        </mxCell>
        <!-- NSG Rules -->
        <mxCell id="14" value="NSG Rules:&#xa;- Allow HTTP (80)&#xa;- Allow SSH (22)" style="shape=note;whiteSpace=wrap;html=1;backgroundOutline=1;darkOpacity=0.05;fillColor=#fff2cc;strokeColor=#d6b656;align=left;spacingLeft=5;" vertex="1" parent="1">
          <mxGeometry x="400" y="390" width="140" height="60" as="geometry" />
        </mxCell>
        <!-- User -->
        <mxCell id="15" value="User" style="shape=umlActor;verticalLabelPosition=bottom;verticalAlign=top;html=1;outlineConnect=0;" vertex="1" parent="1">
          <mxGeometry x="690" y="20" width="30" height="60" as="geometry" />
        </mxCell>
        <!-- User Connection -->
        <mxCell id="16" value="" style="endArrow=classic;startArrow=classic;html=1;rounded=0;entryX=0.5;entryY=0;entryDx=0;entryDy=0;entryPerimeter=0;exitX=0.5;exitY=1;exitDx=0;exitDy=0;exitPerimeter=0;" edge="1" parent="1" source="15" target="12">
          <mxGeometry width="50" height="50" relative="1" as="geometry">
            <mxPoint x="400" y="410" as="sourcePoint" />
            <mxPoint x="450" y="360" as="targetPoint" />
          </mxGeometry>
        </mxCell>
        <!-- Title -->
        <mxCell id="17" value="Azure Webserver Terraform Infrastructure" style="text;html=1;strokeColor=none;fillColor=none;align=center;verticalAlign=middle;whiteSpace=wrap;rounded=0;fontSize=16;fontStyle=1" vertex="1" parent="1">
          <mxGeometry x="120" y="20" width="600" height="30" as="geometry" />
        </mxCell>
        <!-- Storage Account -->
        <mxCell id="18" value="OS Disk" style="aspect=fixed;html=1;points=[];align=center;image;fontSize=12;image=img/lib/azure2/storage/Storage_Accounts.svg;fontStyle=1" vertex="1" parent="1">
          <mxGeometry x="385" y="400" width="65" height="52" as="geometry" />
        </mxCell>
      </root>
    </mxGraphModel>
  </diagram>
</mxfile>
